# xmcd
#
# Track frame offsets:
#	150
#	17969
#	32827
#	51385
#	69460
#	87102
#	102156
#
# Disc length: 1564 seconds
#
# Revision: 0
# Processed by: cddbd v1.5.2PL0 Copyright (c) Steve Scherf et al.
# Submitted via: AudioConverter v8.05 Copyright (c) D.R. Software
#
DISCID=57061a07
DTITLE=Fast Buck - Country Cuts
DYEAR=1900
DGENRE=Country
TTITLE0=Jesse James
TTITLE1=Staying On Here
TTITLE2=Lovin' On Borrowed Time
TTITLE3=Oh Lord Make My Last Gig In Nashville
TTITLE4=Sad Eyed Lady
TTITLE5=After The Night Has Gone
TTITLE6=New York City
EXTD=
EXTT0=
EXTT1=
EXTT2=
EXTT3=
EXTT4=
EXTT5=
EXTT6=
PLAYORDER=
